<?xml version="1.0" encoding="utf-8"?>
<!-- Generator: Adobe Illustrator 24.0.0, SVG Export Plug-In . SVG Version: 6.00 Build 0)  -->
<svg version="1.1" id="Capa_1" xmlns="http://www.w3.org/2000/svg" xmlns:xlink="http://www.w3.org/1999/xlink" x="0px" y="0px"
	 viewBox="0 0 230.3 46" style="enable-background:new 0 0 230.3 46;" xml:space="preserve">
<style type="text/css">
	.st0{enable-background:new    ;}
	.st1{fill:#333333;}
	.st2{opacity:0.7;fill:#3BA336;enable-background:new    ;}
	.st3{opacity:0.9;fill:#0BBBEF;enable-background:new    ;}
</style>
<title>gobierno</title>
<g>
	<g id="Capa_2_1_">
		<g id="Capa_1-2">
			<g class="st0">
				<path class="st1" d="M61.8,1.8v8.4h-0.9V3.5l-3.3,5.7h-0.4l-3.3-5.6v6.7H53V1.8h0.7L57.4,8L61,1.8H61.8z"/>
				<path class="st1" d="M64.3,2.3c-0.1-0.1-0.2-0.3-0.2-0.4c0-0.2,0.1-0.3,0.2-0.4c0.1-0.1,0.3-0.2,0.4-0.2c0.2,0,0.3,0.1,0.4,0.2
					c0.1,0.1,0.2,0.3,0.2,0.4c0,0.2-0.1,0.3-0.2,0.4s-0.3,0.2-0.4,0.2C64.6,2.5,64.4,2.4,64.3,2.3z M64.3,3.9h0.9v6.3h-0.9V3.9z"/>
				<path class="st1" d="M72.6,4.5c0.5,0.5,0.7,1.1,0.7,2v3.7h-0.9V6.6c0-0.7-0.2-1.2-0.5-1.5s-0.8-0.5-1.4-0.5
					c-0.7,0-1.2,0.2-1.6,0.6c-0.4,0.4-0.6,1-0.6,1.7v3.3h-0.9V3.9h0.8v1.2c0.2-0.4,0.6-0.7,1-0.9c0.4-0.2,0.9-0.3,1.4-0.3
					C71.5,3.8,72.2,4.1,72.6,4.5z"/>
				<path class="st1" d="M75.6,2.3c-0.1-0.1-0.2-0.3-0.2-0.4c0-0.2,0.1-0.3,0.2-0.4c0.1-0.1,0.3-0.2,0.4-0.2c0.2,0,0.3,0.1,0.4,0.2
					c0.1,0.1,0.2,0.3,0.2,0.4c0,0.2-0.1,0.3-0.2,0.4s-0.3,0.2-0.4,0.2C75.9,2.5,75.8,2.4,75.6,2.3z M75.7,3.9h0.9v6.3h-0.9V3.9z"/>
				<path class="st1" d="M79.1,10c-0.5-0.1-0.8-0.3-1.1-0.6l0.4-0.7c0.3,0.2,0.6,0.4,1,0.5s0.8,0.2,1.2,0.2c0.6,0,1-0.1,1.3-0.3
					c0.3-0.2,0.4-0.4,0.4-0.8c0-0.2-0.1-0.4-0.2-0.5c-0.2-0.1-0.3-0.2-0.6-0.3c-0.2-0.1-0.5-0.1-0.9-0.2c-0.5-0.1-0.9-0.2-1.2-0.3
					c-0.3-0.1-0.6-0.3-0.8-0.5c-0.2-0.2-0.3-0.6-0.3-1c0-0.5,0.2-1,0.7-1.3C79.3,4,80,3.8,80.7,3.8c0.4,0,0.8,0.1,1.2,0.2
					c0.4,0.1,0.7,0.3,1,0.4l-0.4,0.7c-0.5-0.4-1.1-0.5-1.9-0.5c-0.5,0-1,0.1-1.2,0.3c-0.3,0.2-0.4,0.4-0.4,0.8
					c0,0.2,0.1,0.4,0.2,0.6c0.2,0.1,0.4,0.3,0.6,0.3c0.2,0.1,0.6,0.1,1,0.2c0.5,0.1,0.9,0.2,1.2,0.3c0.3,0.1,0.6,0.3,0.8,0.5
					c0.2,0.2,0.3,0.6,0.3,1c0,0.6-0.2,1-0.7,1.3s-1.1,0.5-1.9,0.5C80.1,10.3,79.6,10.2,79.1,10z"/>
				<path class="st1" d="M88.1,9.8c-0.2,0.1-0.4,0.3-0.6,0.3c-0.2,0.1-0.5,0.1-0.7,0.1c-0.6,0-1-0.2-1.4-0.5
					c-0.3-0.3-0.5-0.8-0.5-1.4V4.6h-1.1V3.9h1.1V2.5h0.9v1.4h1.9v0.7h-1.9v3.8c0,0.4,0.1,0.7,0.3,0.9s0.5,0.3,0.8,0.3
					c0.2,0,0.3,0,0.5-0.1c0.2-0.1,0.3-0.1,0.4-0.2L88.1,9.8z"/>
				<path class="st1" d="M94.9,7.3h-5.3c0,0.7,0.3,1.2,0.8,1.6s1,0.6,1.7,0.6c0.4,0,0.8-0.1,1.1-0.2c0.3-0.1,0.6-0.3,0.9-0.6
					l0.5,0.6c-0.3,0.3-0.6,0.6-1,0.8s-0.9,0.3-1.4,0.3c-0.6,0-1.2-0.1-1.7-0.4c-0.5-0.3-0.9-0.7-1.2-1.1c-0.3-0.5-0.4-1-0.4-1.7
					c0-0.6,0.1-1.2,0.4-1.7c0.3-0.5,0.6-0.9,1.1-1.1c0.5-0.3,1-0.4,1.6-0.4c0.6,0,1.1,0.1,1.6,0.4c0.5,0.3,0.8,0.7,1.1,1.1
					c0.3,0.5,0.4,1,0.4,1.7L94.9,7.3z M90.3,5.2c-0.4,0.4-0.6,0.9-0.7,1.5h4.5C94,6,93.8,5.5,93.4,5.2c-0.4-0.4-0.9-0.6-1.5-0.6
					C91.2,4.6,90.7,4.8,90.3,5.2z"/>
				<path class="st1" d="M98.4,4.2c0.4-0.2,0.9-0.3,1.5-0.3v0.8l-0.2,0c-0.7,0-1.2,0.2-1.6,0.6c-0.4,0.4-0.6,1-0.6,1.7v3.2h-0.9V3.9
					h0.8v1.2C97.7,4.7,98,4.4,98.4,4.2z"/>
				<path class="st1" d="M101.4,2.3c-0.1-0.1-0.2-0.3-0.2-0.4c0-0.2,0.1-0.3,0.2-0.4c0.1-0.1,0.3-0.2,0.4-0.2c0.2,0,0.3,0.1,0.4,0.2
					c0.1,0.1,0.2,0.3,0.2,0.4c0,0.2-0.1,0.3-0.2,0.4s-0.3,0.2-0.4,0.2C101.6,2.5,101.5,2.4,101.4,2.3z M101.4,3.9h0.9v6.3h-0.9V3.9z
					"/>
				<path class="st1" d="M105.5,9.8c-0.5-0.3-0.9-0.7-1.2-1.1c-0.3-0.5-0.4-1-0.4-1.7c0-0.6,0.1-1.2,0.4-1.7
					c0.3-0.5,0.7-0.9,1.2-1.1c0.5-0.3,1-0.4,1.6-0.4s1.2,0.1,1.6,0.4c0.5,0.3,0.9,0.7,1.1,1.1c0.3,0.5,0.4,1,0.4,1.7
					c0,0.6-0.1,1.2-0.4,1.7s-0.7,0.9-1.1,1.1c-0.5,0.3-1,0.4-1.6,0.4S106,10.1,105.5,9.8z M108.4,9.2c0.4-0.2,0.6-0.5,0.8-0.9
					c0.2-0.4,0.3-0.8,0.3-1.3c0-0.5-0.1-0.9-0.3-1.3c-0.2-0.4-0.5-0.7-0.8-0.9c-0.4-0.2-0.8-0.3-1.2-0.3c-0.4,0-0.9,0.1-1.2,0.3
					c-0.4,0.2-0.6,0.5-0.8,0.9c-0.2,0.4-0.3,0.8-0.3,1.3c0,0.5,0.1,0.9,0.3,1.3c0.2,0.4,0.5,0.7,0.8,0.9s0.8,0.3,1.2,0.3
					C107.6,9.5,108,9.4,108.4,9.2z"/>
				<path class="st1" d="M121,1.3v8.9h-0.8V9c-0.3,0.4-0.6,0.7-1,1c-0.4,0.2-0.9,0.3-1.4,0.3c-0.6,0-1.1-0.1-1.6-0.4
					c-0.5-0.3-0.9-0.7-1.1-1.1c-0.3-0.5-0.4-1-0.4-1.7s0.1-1.2,0.4-1.7c0.3-0.5,0.6-0.9,1.1-1.1c0.5-0.3,1-0.4,1.6-0.4
					c0.5,0,1,0.1,1.4,0.3c0.4,0.2,0.8,0.5,1,0.9V1.3H121z M119,9.2c0.4-0.2,0.6-0.5,0.8-0.9c0.2-0.4,0.3-0.8,0.3-1.3
					c0-0.5-0.1-0.9-0.3-1.3c-0.2-0.4-0.5-0.7-0.8-0.9c-0.4-0.2-0.8-0.3-1.2-0.3c-0.4,0-0.8,0.1-1.2,0.3c-0.4,0.2-0.6,0.5-0.8,0.9
					c-0.2,0.4-0.3,0.8-0.3,1.3c0,0.5,0.1,0.9,0.3,1.3c0.2,0.4,0.5,0.7,0.8,0.9c0.4,0.2,0.8,0.3,1.2,0.3C118.3,9.5,118.7,9.4,119,9.2
					z"/>
				<path class="st1" d="M128.9,7.3h-5.3c0,0.7,0.3,1.2,0.8,1.6s1,0.6,1.7,0.6c0.4,0,0.8-0.1,1.1-0.2c0.3-0.1,0.6-0.3,0.9-0.6
					l0.5,0.6c-0.3,0.3-0.6,0.6-1,0.8s-0.9,0.3-1.4,0.3c-0.6,0-1.2-0.1-1.7-0.4c-0.5-0.3-0.9-0.7-1.2-1.1s-0.4-1-0.4-1.7
					c0-0.6,0.1-1.2,0.4-1.7c0.3-0.5,0.6-0.9,1.1-1.1c0.5-0.3,1-0.4,1.6-0.4s1.1,0.1,1.6,0.4c0.5,0.3,0.8,0.7,1.1,1.1
					c0.3,0.5,0.4,1,0.4,1.7L128.9,7.3z M124.3,5.2c-0.4,0.4-0.6,0.9-0.7,1.5h4.5c-0.1-0.6-0.3-1.1-0.7-1.5s-0.9-0.6-1.5-0.6
					C125.2,4.6,124.7,4.8,124.3,5.2z"/>
			</g>
			<g class="st0">
				<path class="st1" d="M61.7,21.7h2.7v5.1c-0.7,0.5-1.5,0.9-2.4,1.2c-0.9,0.3-1.8,0.4-2.7,0.4c-1.3,0-2.5-0.3-3.5-0.8
					c-1-0.6-1.9-1.3-2.5-2.3c-0.6-1-0.9-2.1-0.9-3.4s0.3-2.4,0.9-3.4c0.6-1,1.4-1.8,2.5-2.3c1.1-0.6,2.2-0.8,3.6-0.8
					c1.1,0,2.1,0.2,3,0.6c0.9,0.4,1.7,0.9,2.3,1.6l-1.9,1.7c-0.9-0.9-2-1.4-3.3-1.4c-0.8,0-1.5,0.2-2.1,0.5s-1.1,0.8-1.5,1.4
					c-0.3,0.6-0.5,1.3-0.5,2.1c0,0.8,0.2,1.5,0.5,2.1c0.3,0.6,0.8,1.1,1.4,1.4c0.6,0.3,1.3,0.5,2.1,0.5c0.8,0,1.6-0.2,2.3-0.5V21.7z
					"/>
				<path class="st1" d="M68.7,27.7c-0.8-0.4-1.4-1-1.9-1.8c-0.5-0.8-0.7-1.6-0.7-2.6c0-1,0.2-1.8,0.7-2.6s1.1-1.3,1.9-1.8
					c0.8-0.4,1.7-0.6,2.7-0.6s1.9,0.2,2.7,0.6c0.8,0.4,1.4,1,1.9,1.8s0.7,1.6,0.7,2.6c0,1-0.2,1.8-0.7,2.6c-0.5,0.8-1.1,1.3-1.9,1.8
					c-0.8,0.4-1.7,0.6-2.7,0.6S69.5,28.1,68.7,27.7z M73.2,25.3c0.5-0.5,0.7-1.1,0.7-2s-0.2-1.5-0.7-2s-1.1-0.7-1.8-0.7
					c-0.7,0-1.3,0.2-1.8,0.7c-0.5,0.5-0.7,1.1-0.7,2s0.2,1.5,0.7,2c0.5,0.5,1.1,0.7,1.8,0.7C72.2,26,72.8,25.8,73.2,25.3z"/>
				<path class="st1" d="M86.8,19c0.7,0.4,1.3,1,1.7,1.7s0.6,1.6,0.6,2.6c0,1-0.2,1.9-0.6,2.6s-1,1.3-1.7,1.7
					c-0.7,0.4-1.6,0.6-2.5,0.6c-1.3,0-2.3-0.4-3-1.3v1.1h-2.7V14.8h2.8v4.7c0.7-0.8,1.7-1.2,2.9-1.2C85.2,18.4,86.1,18.6,86.8,19z
					 M85.6,25.3c0.5-0.5,0.7-1.1,0.7-2s-0.2-1.5-0.7-2c-0.5-0.5-1.1-0.7-1.8-0.7c-0.7,0-1.3,0.2-1.8,0.7c-0.5,0.5-0.7,1.1-0.7,2
					s0.2,1.5,0.7,2c0.5,0.5,1.1,0.7,1.8,0.7C84.6,26,85.2,25.8,85.6,25.3z"/>
				<path class="st1" d="M91.2,16.7c-0.3-0.3-0.5-0.7-0.5-1.1c0-0.4,0.2-0.8,0.5-1.1c0.3-0.3,0.7-0.5,1.3-0.5c0.5,0,0.9,0.1,1.3,0.4
					c0.3,0.3,0.5,0.6,0.5,1.1c0,0.5-0.2,0.9-0.5,1.2c-0.3,0.3-0.7,0.5-1.3,0.5C91.9,17.2,91.5,17,91.2,16.7z M91,18.5h2.8v9.7H91
					V18.5z"/>
				<path class="st1" d="M105.9,24.2h-7.3c0.1,0.6,0.4,1.1,0.9,1.4s1.1,0.5,1.8,0.5c0.5,0,1-0.1,1.3-0.2c0.4-0.1,0.8-0.4,1.1-0.7
					l1.5,1.6c-0.9,1-2.2,1.6-4,1.6c-1.1,0-2.1-0.2-2.9-0.6c-0.8-0.4-1.5-1-1.9-1.8c-0.5-0.8-0.7-1.6-0.7-2.6c0-0.9,0.2-1.8,0.7-2.6
					c0.5-0.8,1.1-1.4,1.9-1.8c0.8-0.4,1.7-0.6,2.6-0.6c0.9,0,1.8,0.2,2.6,0.6s1.4,1,1.8,1.8s0.7,1.6,0.7,2.7
					C105.9,23.4,105.9,23.7,105.9,24.2z M99.3,21c-0.4,0.4-0.7,0.9-0.8,1.5h4.8c-0.1-0.6-0.4-1.1-0.8-1.5c-0.4-0.4-1-0.5-1.6-0.5
					C100.3,20.5,99.8,20.7,99.3,21z"/>
				<path class="st1" d="M111.9,18.7c0.6-0.2,1.2-0.4,2-0.4V21c-0.3,0-0.5,0-0.6,0c-0.8,0-1.4,0.2-1.9,0.7c-0.5,0.4-0.7,1.1-0.7,2
					v4.6h-2.8v-9.7h2.7v1.3C110.8,19.3,111.3,19,111.9,18.7z"/>
				<path class="st1" d="M124.3,19.5c0.7,0.7,1.1,1.8,1.1,3.2v5.5h-2.8v-5.1c0-0.8-0.2-1.3-0.5-1.7s-0.8-0.6-1.5-0.6
					c-0.7,0-1.3,0.2-1.7,0.7c-0.4,0.4-0.6,1.1-0.6,2v4.8h-2.8v-9.7h2.7v1.1c0.4-0.4,0.8-0.7,1.4-0.9c0.6-0.2,1.2-0.3,1.8-0.3
					C122.6,18.4,123.6,18.7,124.3,19.5z"/>
				<path class="st1" d="M129.9,27.7c-0.8-0.4-1.4-1-1.9-1.8c-0.5-0.8-0.7-1.6-0.7-2.6c0-1,0.2-1.8,0.7-2.6s1.1-1.3,1.9-1.8
					c0.8-0.4,1.7-0.6,2.7-0.6c1,0,1.9,0.2,2.7,0.6c0.8,0.4,1.4,1,1.9,1.8s0.7,1.6,0.7,2.6c0,1-0.2,1.8-0.7,2.6
					c-0.5,0.8-1.1,1.3-1.9,1.8c-0.8,0.4-1.7,0.6-2.7,0.6C131.6,28.3,130.7,28.1,129.9,27.7z M134.4,25.3c0.5-0.5,0.7-1.1,0.7-2
					s-0.2-1.5-0.7-2s-1.1-0.7-1.8-0.7s-1.3,0.2-1.8,0.7s-0.7,1.1-0.7,2s0.2,1.5,0.7,2c0.5,0.5,1.1,0.7,1.8,0.7S134,25.8,134.4,25.3z
					"/>
				<path class="st1" d="M154.5,18.5l-4.4,10.3c-0.4,1.1-1,1.9-1.6,2.4c-0.7,0.5-1.4,0.7-2.4,0.7c-0.5,0-1-0.1-1.5-0.2
					c-0.5-0.2-0.9-0.4-1.2-0.6l1-2c0.2,0.2,0.5,0.3,0.7,0.5c0.3,0.1,0.6,0.2,0.8,0.2c0.4,0,0.7-0.1,0.9-0.3s0.5-0.5,0.6-0.9l0-0.1
					l-4.2-9.8h2.9l2.7,6.6l2.7-6.6H154.5z"/>
				<path class="st1" d="M163.6,18h-4v-2.4h11V18h-4v10.2h-2.9V18z"/>
				<path class="st1" d="M175.7,18.7c0.6-0.2,1.2-0.4,2-0.4V21c-0.3,0-0.5,0-0.6,0c-0.8,0-1.4,0.2-1.9,0.7c-0.5,0.4-0.7,1.1-0.7,2
					v4.6h-2.8v-9.7h2.7v1.3C174.7,19.3,175.2,19,175.7,18.7z"/>
				<path class="st1" d="M186.7,19.4c0.8,0.7,1.2,1.8,1.2,3.2v5.5h-2.6V27c-0.5,0.9-1.5,1.3-3,1.3c-0.7,0-1.4-0.1-1.9-0.4
					s-1-0.6-1.3-1c-0.3-0.4-0.4-0.9-0.4-1.5c0-0.9,0.3-1.6,1-2.1c0.7-0.5,1.7-0.8,3.1-0.8h2.2c0-0.6-0.2-1.1-0.6-1.4
					c-0.4-0.3-0.9-0.5-1.7-0.5c-0.5,0-1,0.1-1.5,0.2c-0.5,0.2-0.9,0.4-1.3,0.7l-1-2c0.5-0.4,1.2-0.7,1.9-0.9
					c0.7-0.2,1.5-0.3,2.3-0.3C184.7,18.4,185.9,18.7,186.7,19.4z M184.3,26.1c0.4-0.2,0.6-0.5,0.8-1v-1h-1.9c-1.2,0-1.7,0.4-1.7,1.1
					c0,0.4,0.1,0.6,0.4,0.9c0.3,0.2,0.7,0.3,1.2,0.3C183.5,26.5,183.9,26.3,184.3,26.1z"/>
				<path class="st1" d="M198.6,19c0.7,0.4,1.3,1,1.7,1.7s0.6,1.6,0.6,2.6c0,1-0.2,1.9-0.6,2.6s-1,1.3-1.7,1.7
					c-0.7,0.4-1.6,0.6-2.5,0.6c-1.3,0-2.3-0.4-3-1.3v1.1h-2.7V14.8h2.8v4.7c0.7-0.8,1.7-1.2,2.9-1.2C197.1,18.4,197.9,18.6,198.6,19
					z M197.5,25.3c0.5-0.5,0.7-1.1,0.7-2s-0.2-1.5-0.7-2c-0.5-0.5-1.1-0.7-1.8-0.7s-1.3,0.2-1.8,0.7c-0.5,0.5-0.7,1.1-0.7,2
					s0.2,1.5,0.7,2c0.5,0.5,1.1,0.7,1.8,0.7S197,25.8,197.5,25.3z"/>
				<path class="st1" d="M210.1,19.4c0.8,0.7,1.2,1.8,1.2,3.2v5.5h-2.6V27c-0.5,0.9-1.5,1.3-3,1.3c-0.7,0-1.4-0.1-1.9-0.4
					c-0.5-0.3-1-0.6-1.3-1c-0.3-0.4-0.4-0.9-0.4-1.5c0-0.9,0.3-1.6,1-2.1c0.7-0.5,1.7-0.8,3.1-0.8h2.2c0-0.6-0.2-1.1-0.6-1.4
					s-0.9-0.5-1.7-0.5c-0.5,0-1,0.1-1.5,0.2c-0.5,0.2-0.9,0.4-1.3,0.7l-1-2c0.5-0.4,1.2-0.7,1.9-0.9c0.7-0.2,1.5-0.3,2.3-0.3
					C208.1,18.4,209.3,18.7,210.1,19.4z M207.7,26.1c0.4-0.2,0.6-0.5,0.8-1v-1h-1.9c-1.2,0-1.7,0.4-1.7,1.1c0,0.4,0.1,0.6,0.4,0.9
					s0.7,0.3,1.2,0.3C206.9,26.5,207.3,26.3,207.7,26.1z"/>
				<path class="st1" d="M210.8,31.3l0.8-2c0.3,0.2,0.7,0.3,1.2,0.3c0.4,0,0.6-0.1,0.8-0.4c0.2-0.2,0.3-0.6,0.3-1.1v-9.7h2.8v9.7
					c0,1.1-0.3,2-1,2.7c-0.6,0.7-1.5,1-2.7,1C212.1,31.8,211.3,31.7,210.8,31.3z M214.1,16.7c-0.3-0.3-0.5-0.7-0.5-1.1
					c0-0.4,0.2-0.8,0.5-1.1c0.3-0.3,0.7-0.5,1.3-0.5c0.5,0,0.9,0.1,1.3,0.4s0.5,0.6,0.5,1.1c0,0.5-0.2,0.9-0.5,1.2
					c-0.3,0.3-0.7,0.5-1.3,0.5C214.8,17.2,214.4,17,214.1,16.7z"/>
				<path class="st1" d="M221.2,27.7c-0.8-0.4-1.4-1-1.9-1.8c-0.5-0.8-0.7-1.6-0.7-2.6c0-1,0.2-1.8,0.7-2.6s1.1-1.3,1.9-1.8
					c0.8-0.4,1.7-0.6,2.7-0.6c1,0,1.9,0.2,2.7,0.6c0.8,0.4,1.4,1,1.9,1.8s0.7,1.6,0.7,2.6c0,1-0.2,1.8-0.7,2.6
					c-0.5,0.8-1.1,1.3-1.9,1.8c-0.8,0.4-1.7,0.6-2.7,0.6C222.9,28.3,222,28.1,221.2,27.7z M225.7,25.3c0.5-0.5,0.7-1.1,0.7-2
					s-0.2-1.5-0.7-2s-1.1-0.7-1.8-0.7s-1.3,0.2-1.8,0.7s-0.7,1.1-0.7,2s0.2,1.5,0.7,2c0.5,0.5,1.1,0.7,1.8,0.7
					S225.2,25.8,225.7,25.3z"/>
			</g>
			<g class="st0">
				<path class="st1" d="M54.4,42.4c-0.7-0.4-1.2-0.9-1.6-1.5s-0.6-1.4-0.6-2.2c0-0.8,0.2-1.5,0.6-2.2c0.4-0.7,0.9-1.2,1.6-1.5
					s1.4-0.6,2.3-0.6c0.6,0,1.2,0.1,1.7,0.3c0.5,0.2,1,0.5,1.3,0.9l-0.6,0.6c-0.7-0.7-1.5-1-2.5-1c-0.7,0-1.3,0.2-1.8,0.5
					c-0.5,0.3-1,0.7-1.3,1.2c-0.3,0.5-0.5,1.1-0.5,1.8c0,0.7,0.2,1.2,0.5,1.8c0.3,0.5,0.7,0.9,1.3,1.2c0.5,0.3,1.1,0.5,1.8,0.5
					c1,0,1.8-0.3,2.5-1l0.6,0.6c-0.4,0.4-0.8,0.7-1.4,0.9c-0.5,0.2-1.1,0.3-1.7,0.3C55.8,42.9,55.1,42.8,54.4,42.4z"/>
				<path class="st1" d="M66.6,37.2c0.5,0.5,0.7,1.1,0.7,2v3.7h-0.9v-3.6c0-0.7-0.2-1.2-0.5-1.5s-0.8-0.5-1.4-0.5
					c-0.7,0-1.2,0.2-1.6,0.6c-0.4,0.4-0.6,1-0.6,1.7v3.3h-0.9V34h0.9v3.7c0.2-0.4,0.6-0.7,1-0.9c0.4-0.2,0.9-0.3,1.4-0.3
					C65.5,36.5,66.1,36.7,66.6,37.2z"/>
				<path class="st1" d="M75.4,36.6v6.3h-0.8v-1.2c-0.3,0.4-0.6,0.7-1,1c-0.4,0.2-0.9,0.3-1.4,0.3c-0.6,0-1.1-0.1-1.6-0.4
					c-0.5-0.3-0.9-0.7-1.1-1.1c-0.3-0.5-0.4-1-0.4-1.7s0.1-1.2,0.4-1.7c0.3-0.5,0.6-0.9,1.1-1.1c0.5-0.3,1-0.4,1.6-0.4
					c0.5,0,1,0.1,1.4,0.3s0.8,0.5,1,0.9v-1.2H75.4z M73.4,41.9c0.4-0.2,0.6-0.5,0.8-0.9c0.2-0.4,0.3-0.8,0.3-1.3
					c0-0.5-0.1-0.9-0.3-1.3c-0.2-0.4-0.5-0.7-0.8-0.9c-0.4-0.2-0.8-0.3-1.2-0.3c-0.4,0-0.9,0.1-1.2,0.3c-0.4,0.2-0.6,0.5-0.8,0.9
					c-0.2,0.4-0.3,0.8-0.3,1.3c0,0.5,0.1,0.9,0.3,1.3c0.2,0.4,0.5,0.7,0.8,0.9s0.8,0.3,1.2,0.3C72.6,42.2,73,42.1,73.4,41.9z"/>
				<path class="st1" d="M78.7,42.5c-0.5-0.3-0.9-0.7-1.2-1.1c-0.3-0.5-0.4-1-0.4-1.7c0-0.6,0.1-1.2,0.4-1.7
					c0.3-0.5,0.7-0.9,1.2-1.1c0.5-0.3,1.1-0.4,1.7-0.4c0.5,0,1,0.1,1.5,0.3c0.4,0.2,0.8,0.5,1,0.9l-0.6,0.4
					c-0.2-0.3-0.5-0.5-0.8-0.7c-0.3-0.2-0.7-0.2-1-0.2c-0.5,0-0.9,0.1-1.2,0.3c-0.4,0.2-0.6,0.5-0.9,0.9c-0.2,0.4-0.3,0.8-0.3,1.3
					c0,0.5,0.1,0.9,0.3,1.3c0.2,0.4,0.5,0.7,0.9,0.9c0.4,0.2,0.8,0.3,1.2,0.3c0.4,0,0.7-0.1,1-0.2c0.3-0.2,0.6-0.4,0.8-0.7l0.6,0.4
					c-0.2,0.4-0.6,0.7-1,0.9c-0.4,0.2-0.9,0.3-1.5,0.3C79.8,42.9,79.2,42.8,78.7,42.5z"/>
				<path class="st1" d="M85.3,42.5c-0.5-0.3-0.9-0.7-1.2-1.1c-0.3-0.5-0.4-1-0.4-1.7c0-0.6,0.1-1.2,0.4-1.7
					c0.3-0.5,0.7-0.9,1.2-1.1c0.5-0.3,1-0.4,1.6-0.4s1.2,0.1,1.6,0.4c0.5,0.3,0.9,0.7,1.1,1.1c0.3,0.5,0.4,1,0.4,1.7
					c0,0.6-0.1,1.2-0.4,1.7s-0.7,0.9-1.1,1.1c-0.5,0.3-1,0.4-1.6,0.4S85.8,42.8,85.3,42.5z M88.2,41.9c0.4-0.2,0.6-0.5,0.8-0.9
					c0.2-0.4,0.3-0.8,0.3-1.3c0-0.5-0.1-0.9-0.3-1.3c-0.2-0.4-0.5-0.7-0.8-0.9c-0.4-0.2-0.8-0.3-1.2-0.3c-0.4,0-0.9,0.1-1.2,0.3
					c-0.4,0.2-0.6,0.5-0.8,0.9c-0.2,0.4-0.3,0.8-0.3,1.3c0,0.5,0.1,0.9,0.3,1.3c0.2,0.4,0.5,0.7,0.8,0.9s0.8,0.3,1.2,0.3
					C87.4,42.2,87.8,42.1,88.2,41.9z"/>
				<path class="st1" d="M101.2,38.7h0.9v4.2h-0.8v-0.7c-0.3,0.3-0.7,0.5-1.1,0.6c-0.4,0.1-0.9,0.2-1.4,0.2c-0.8,0-1.5-0.2-2.1-0.5
					c-0.6-0.3-1.2-0.8-1.6-1.5c-0.4-0.6-0.6-1.4-0.6-2.3c0-0.8,0.2-1.5,0.6-2.2c0.4-0.7,0.9-1.2,1.6-1.5c0.7-0.4,1.4-0.6,2.3-0.6
					c0.6,0,1.2,0.1,1.8,0.3c0.5,0.2,1,0.5,1.4,0.9l-0.6,0.6c-0.7-0.7-1.5-1-2.5-1c-0.7,0-1.3,0.1-1.8,0.4c-0.5,0.3-1,0.7-1.3,1.3
					s-0.5,1.1-0.5,1.8c0,0.7,0.2,1.3,0.5,1.9c0.3,0.5,0.7,0.9,1.3,1.2s1.1,0.4,1.7,0.4c0.4,0,0.9-0.1,1.3-0.2
					c0.4-0.1,0.8-0.4,1.1-0.7V38.7z"/>
				<path class="st1" d="M105.3,42.5c-0.5-0.3-0.9-0.7-1.2-1.1c-0.3-0.5-0.4-1-0.4-1.7c0-0.6,0.1-1.2,0.4-1.7
					c0.3-0.5,0.7-0.9,1.2-1.1c0.5-0.3,1-0.4,1.6-0.4s1.2,0.1,1.6,0.4c0.5,0.3,0.9,0.7,1.1,1.1c0.3,0.5,0.4,1,0.4,1.7
					c0,0.6-0.1,1.2-0.4,1.7s-0.7,0.9-1.1,1.1c-0.5,0.3-1,0.4-1.6,0.4S105.8,42.8,105.3,42.5z M108.1,41.9c0.4-0.2,0.6-0.5,0.8-0.9
					c0.2-0.4,0.3-0.8,0.3-1.3c0-0.5-0.1-0.9-0.3-1.3c-0.2-0.4-0.5-0.7-0.8-0.9c-0.4-0.2-0.8-0.3-1.2-0.3c-0.4,0-0.9,0.1-1.2,0.3
					c-0.4,0.2-0.6,0.5-0.8,0.9c-0.2,0.4-0.3,0.8-0.3,1.3c0,0.5,0.1,0.9,0.3,1.3c0.2,0.4,0.5,0.7,0.8,0.9s0.8,0.3,1.2,0.3
					C107.4,42.2,107.8,42.1,108.1,41.9z"/>
				<path class="st1" d="M116.7,36.9c0.5,0.3,0.9,0.6,1.1,1.1c0.3,0.5,0.4,1,0.4,1.7s-0.1,1.2-0.4,1.7c-0.3,0.5-0.6,0.9-1.1,1.1
					c-0.5,0.3-1,0.4-1.6,0.4c-0.5,0-1-0.1-1.4-0.3c-0.4-0.2-0.8-0.5-1-1v1.2h-0.8V34h0.9v3.8c0.3-0.4,0.6-0.7,1-0.9
					c0.4-0.2,0.9-0.3,1.4-0.3C115.7,36.5,116.3,36.6,116.7,36.9z M116.3,41.9c0.4-0.2,0.6-0.5,0.8-0.9s0.3-0.8,0.3-1.3
					c0-0.5-0.1-0.9-0.3-1.3c-0.2-0.4-0.5-0.7-0.8-0.9c-0.4-0.2-0.8-0.3-1.2-0.3c-0.4,0-0.9,0.1-1.2,0.3c-0.4,0.2-0.6,0.5-0.8,0.9
					c-0.2,0.4-0.3,0.8-0.3,1.3c0,0.5,0.1,0.9,0.3,1.3s0.5,0.7,0.8,0.9s0.8,0.3,1.2,0.3C115.5,42.2,115.9,42.1,116.3,41.9z"/>
				<path class="st1" d="M120,35c-0.1-0.1-0.2-0.3-0.2-0.4c0-0.2,0.1-0.3,0.2-0.4c0.1-0.1,0.3-0.2,0.4-0.2s0.3,0.1,0.4,0.2
					c0.1,0.1,0.2,0.3,0.2,0.4c0,0.2-0.1,0.3-0.2,0.4s-0.3,0.2-0.4,0.2S120.1,35.1,120,35z M120,36.6h0.9v6.3H120V36.6z"/>
				<path class="st1" d="M127,42c0.3-0.1,0.6-0.3,0.8-0.6l0.5,0.6c-0.3,0.3-0.6,0.6-1,0.8s-0.9,0.3-1.4,0.3c-0.6,0-1.2-0.1-1.7-0.4
					c-0.5-0.3-0.9-0.7-1.2-1.1s-0.4-1-0.4-1.7c0-0.6,0.1-1.2,0.4-1.7c0.3-0.5,0.6-0.9,1.1-1.1c0.5-0.3,1-0.4,1.6-0.4
					c0.6,0,1.1,0.1,1.5,0.4c0.5,0.3,0.8,0.6,1.1,1.1c0.3,0.5,0.4,1,0.4,1.6l-5.2,1c0.2,0.5,0.5,0.9,0.9,1.2s0.9,0.4,1.5,0.4
					C126.3,42.2,126.7,42.1,127,42z M124.5,37.5c-0.3,0.2-0.6,0.5-0.8,0.9s-0.3,0.8-0.3,1.3c0,0.1,0,0.2,0,0.3l4.5-0.9
					c-0.1-0.5-0.3-1-0.7-1.3c-0.4-0.3-0.9-0.5-1.4-0.5C125.3,37.2,124.9,37.3,124.5,37.5z"/>
				<path class="st1" d="M132.2,36.8c0.4-0.2,0.9-0.3,1.5-0.3v0.8l-0.2,0c-0.7,0-1.2,0.2-1.6,0.6c-0.4,0.4-0.6,1-0.6,1.7v3.2h-0.9
					v-6.3h0.8v1.2C131.5,37.4,131.8,37.1,132.2,36.8z"/>
				<path class="st1" d="M140.3,37.2c0.5,0.5,0.7,1.1,0.7,2v3.7h-0.9v-3.6c0-0.7-0.2-1.2-0.5-1.5s-0.8-0.5-1.4-0.5
					c-0.7,0-1.2,0.2-1.6,0.6c-0.4,0.4-0.6,1-0.6,1.7v3.3h-0.9v-6.3h0.8v1.2c0.2-0.4,0.6-0.7,1-0.9c0.4-0.2,0.9-0.3,1.4-0.3
					C139.2,36.5,139.8,36.7,140.3,37.2z"/>
				<path class="st1" d="M144.3,42.5c-0.5-0.3-0.9-0.7-1.2-1.1s-0.4-1-0.4-1.7c0-0.6,0.1-1.2,0.4-1.7c0.3-0.5,0.7-0.9,1.2-1.1
					c0.5-0.3,1-0.4,1.6-0.4c0.6,0,1.2,0.1,1.6,0.4c0.5,0.3,0.9,0.7,1.1,1.1c0.3,0.5,0.4,1,0.4,1.7c0,0.6-0.1,1.2-0.4,1.7
					c-0.3,0.5-0.7,0.9-1.1,1.1c-0.5,0.3-1,0.4-1.6,0.4C145.3,42.9,144.8,42.8,144.3,42.5z M147.1,41.9c0.4-0.2,0.6-0.5,0.8-0.9
					s0.3-0.8,0.3-1.3c0-0.5-0.1-0.9-0.3-1.3c-0.2-0.4-0.5-0.7-0.8-0.9c-0.4-0.2-0.8-0.3-1.2-0.3s-0.8,0.1-1.2,0.3
					c-0.4,0.2-0.6,0.5-0.8,0.9c-0.2,0.4-0.3,0.8-0.3,1.3c0,0.5,0.1,0.9,0.3,1.3s0.5,0.7,0.8,0.9c0.4,0.2,0.8,0.3,1.2,0.3
					S146.8,42.1,147.1,41.9z"/>
				<path class="st1" d="M159.8,34v8.9H159v-1.2c-0.3,0.4-0.6,0.7-1,1c-0.4,0.2-0.9,0.3-1.4,0.3c-0.6,0-1.1-0.1-1.6-0.4
					c-0.5-0.3-0.9-0.7-1.1-1.1c-0.3-0.5-0.4-1-0.4-1.7s0.1-1.2,0.4-1.7c0.3-0.5,0.6-0.9,1.1-1.1c0.5-0.3,1-0.4,1.6-0.4
					c0.5,0,1,0.1,1.4,0.3s0.8,0.5,1,0.9V34H159.8z M157.8,41.9c0.4-0.2,0.6-0.5,0.8-0.9s0.3-0.8,0.3-1.3c0-0.5-0.1-0.9-0.3-1.3
					c-0.2-0.4-0.5-0.7-0.8-0.9c-0.4-0.2-0.8-0.3-1.2-0.3c-0.4,0-0.8,0.1-1.2,0.3c-0.4,0.2-0.6,0.5-0.8,0.9c-0.2,0.4-0.3,0.8-0.3,1.3
					c0,0.5,0.1,0.9,0.3,1.3s0.5,0.7,0.8,0.9c0.4,0.2,0.8,0.3,1.2,0.3C157,42.2,157.4,42.1,157.8,41.9z"/>
				<path class="st1" d="M165.9,42c0.3-0.1,0.6-0.3,0.8-0.6l0.5,0.6c-0.3,0.3-0.6,0.6-1,0.8s-0.9,0.3-1.4,0.3
					c-0.6,0-1.2-0.1-1.7-0.4c-0.5-0.3-0.9-0.7-1.2-1.1s-0.4-1-0.4-1.7c0-0.6,0.1-1.2,0.4-1.7c0.3-0.5,0.6-0.9,1.1-1.1
					c0.5-0.3,1-0.4,1.6-0.4c0.6,0,1.1,0.1,1.5,0.4c0.5,0.3,0.8,0.6,1.1,1.1c0.3,0.5,0.4,1,0.4,1.6l-5.2,1c0.2,0.5,0.5,0.9,0.9,1.2
					s0.9,0.4,1.5,0.4C165.2,42.2,165.6,42.1,165.9,42z M163.5,37.5c-0.3,0.2-0.6,0.5-0.8,0.9s-0.3,0.8-0.3,1.3c0,0.1,0,0.2,0,0.3
					l4.5-0.9c-0.1-0.5-0.3-1-0.7-1.3c-0.4-0.3-0.9-0.5-1.4-0.5C164.2,37.2,163.8,37.3,163.5,37.5z"/>
				<path class="st1" d="M175.7,42.5c-0.2,0.1-0.4,0.3-0.6,0.3c-0.2,0.1-0.5,0.1-0.7,0.1c-0.6,0-1-0.2-1.4-0.5
					c-0.3-0.3-0.5-0.8-0.5-1.4v-5.9h0.9v1.4h1.9v0.7h-1.9V41c0,0.4,0.1,0.7,0.3,0.9c0.2,0.2,0.5,0.3,0.8,0.3c0.4,0,0.7-0.1,0.9-0.3
					L175.7,42.5z"/>
				<path class="st1" d="M177.9,42.5c-0.5-0.3-0.9-0.7-1.2-1.1c-0.3-0.5-0.4-1-0.4-1.7c0-0.6,0.1-1.2,0.4-1.7
					c0.3-0.5,0.7-0.9,1.2-1.1c0.5-0.3,1-0.4,1.6-0.4c0.6,0,1.2,0.1,1.6,0.4c0.5,0.3,0.9,0.7,1.1,1.1c0.3,0.5,0.4,1,0.4,1.7
					c0,0.6-0.1,1.2-0.4,1.7c-0.3,0.5-0.7,0.9-1.1,1.1c-0.5,0.3-1,0.4-1.6,0.4C178.9,42.9,178.4,42.8,177.9,42.5z M180.8,41.9
					c0.4-0.2,0.6-0.5,0.8-0.9c0.2-0.4,0.3-0.8,0.3-1.3c0-0.5-0.1-0.9-0.3-1.3c-0.2-0.4-0.5-0.7-0.8-0.9c-0.4-0.2-0.8-0.3-1.2-0.3
					c-0.4,0-0.9,0.1-1.2,0.3c-0.4,0.2-0.6,0.5-0.8,0.9c-0.2,0.4-0.3,0.8-0.3,1.3c0,0.5,0.1,0.9,0.3,1.3c0.2,0.4,0.5,0.7,0.8,0.9
					c0.4,0.2,0.8,0.3,1.2,0.3C180,42.2,180.4,42.1,180.8,41.9z"/>
				<path class="st1" d="M190.3,34v8.9h-0.8v-1.2c-0.3,0.4-0.6,0.7-1,1c-0.4,0.2-0.9,0.3-1.4,0.3c-0.6,0-1.1-0.1-1.6-0.4
					c-0.5-0.3-0.9-0.7-1.1-1.1c-0.3-0.5-0.4-1-0.4-1.7s0.1-1.2,0.4-1.7c0.3-0.5,0.6-0.9,1.1-1.1c0.5-0.3,1-0.4,1.6-0.4
					c0.5,0,1,0.1,1.4,0.3s0.8,0.5,1,0.9V34H190.3z M188.3,41.9c0.4-0.2,0.6-0.5,0.8-0.9s0.3-0.8,0.3-1.3c0-0.5-0.1-0.9-0.3-1.3
					c-0.2-0.4-0.5-0.7-0.8-0.9c-0.4-0.2-0.8-0.3-1.2-0.3c-0.4,0-0.8,0.1-1.2,0.3c-0.4,0.2-0.6,0.5-0.8,0.9c-0.2,0.4-0.3,0.8-0.3,1.3
					c0,0.5,0.1,0.9,0.3,1.3s0.5,0.7,0.8,0.9c0.4,0.2,0.8,0.3,1.2,0.3C187.5,42.2,187.9,42.1,188.3,41.9z"/>
				<path class="st1" d="M193.6,42.5c-0.5-0.3-0.9-0.7-1.2-1.1s-0.4-1-0.4-1.7c0-0.6,0.1-1.2,0.4-1.7c0.3-0.5,0.7-0.9,1.2-1.1
					c0.5-0.3,1-0.4,1.6-0.4c0.6,0,1.2,0.1,1.6,0.4c0.5,0.3,0.9,0.7,1.1,1.1c0.3,0.5,0.4,1,0.4,1.7c0,0.6-0.1,1.2-0.4,1.7
					c-0.3,0.5-0.7,0.9-1.1,1.1c-0.5,0.3-1,0.4-1.6,0.4C194.6,42.9,194.1,42.8,193.6,42.5z M196.4,41.9c0.4-0.2,0.6-0.5,0.8-0.9
					s0.3-0.8,0.3-1.3c0-0.5-0.1-0.9-0.3-1.3c-0.2-0.4-0.5-0.7-0.8-0.9c-0.4-0.2-0.8-0.3-1.2-0.3s-0.8,0.1-1.2,0.3
					c-0.4,0.2-0.6,0.5-0.8,0.9c-0.2,0.4-0.3,0.8-0.3,1.3c0,0.5,0.1,0.9,0.3,1.3s0.5,0.7,0.8,0.9c0.4,0.2,0.8,0.3,1.2,0.3
					S196.1,42.1,196.4,41.9z"/>
				<path class="st1" d="M200.4,42.7c-0.5-0.1-0.8-0.3-1.1-0.6l0.4-0.7c0.3,0.2,0.6,0.4,1,0.5c0.4,0.1,0.8,0.2,1.2,0.2
					c0.6,0,1-0.1,1.3-0.3s0.4-0.4,0.4-0.8c0-0.2-0.1-0.4-0.2-0.5c-0.2-0.1-0.3-0.2-0.6-0.3c-0.2-0.1-0.5-0.1-0.9-0.2
					c-0.5-0.1-0.9-0.2-1.2-0.3c-0.3-0.1-0.6-0.3-0.8-0.5c-0.2-0.2-0.3-0.6-0.3-1c0-0.5,0.2-1,0.7-1.3c0.4-0.3,1.1-0.5,1.8-0.5
					c0.4,0,0.8,0.1,1.2,0.2c0.4,0.1,0.7,0.3,1,0.4l-0.4,0.7c-0.5-0.4-1.1-0.5-1.9-0.5c-0.5,0-1,0.1-1.2,0.3
					c-0.3,0.2-0.4,0.4-0.4,0.8c0,0.2,0.1,0.4,0.2,0.6c0.2,0.1,0.3,0.3,0.6,0.3c0.2,0.1,0.6,0.1,1,0.2c0.5,0.1,0.9,0.2,1.2,0.3
					c0.3,0.1,0.6,0.3,0.8,0.5c0.2,0.2,0.3,0.6,0.3,1c0,0.6-0.2,1-0.7,1.3s-1.1,0.5-1.9,0.5C201.3,42.9,200.8,42.9,200.4,42.7z"/>
			</g>
			<path class="st2" d="M38.8,16.5L38.8,16.5c1.7,1.7,1.7,4.4,0,6L19.5,41.8c-1.7,1.7-4.4,1.7-6,0l0,0c-1.7-1.7-1.7-4.4,0-6
				l19.3-19.3C34.5,14.8,37.2,14.8,38.8,16.5z"/>
			<path class="st2" d="M26.5,4.2L26.5,4.2c1.7,1.7,1.7,4.4,0,6L7.3,29.5c-1.7,1.7-4.4,1.7-6,0l0,0c-1.7-1.7-1.7-4.4,0-6L20.5,4.2
				C22.2,2.6,24.9,2.6,26.5,4.2z"/>
			<path class="st3" d="M26.5,41.8L26.5,41.8c-1.7,1.7-4.4,1.7-6,0L1.2,22.5c-1.7-1.7-1.7-4.4,0-6h0c1.7-1.7,4.4-1.7,6,0l19.3,19.3
				C28.2,37.4,28.2,40.1,26.5,41.8z"/>
			<path class="st3" d="M38.8,29.5L38.8,29.5c-1.7,1.7-4.4,1.7-6,0L13.5,10.2c-1.7-1.7-1.7-4.4,0-6l0,0c1.7-1.7,4.4-1.7,6,0
				l19.3,19.3C40.5,25.2,40.5,27.9,38.8,29.5z"/>
		</g>
	</g>
</g>
</svg>
